<svg width="22" height="22" viewBox="0 0 22 22" fill="none" xmlns="http://www.w3.org/2000/svg">
<circle cx="11" cy="11" r="11" fill="#ED008C"/>
<path d="M10.9937 15.12C10.1057 15.12 9.38172 14.824 8.82172 14.232C8.26172 13.632 7.98172 12.86 7.98172 11.916V9.54C7.98172 8.596 8.26172 7.828 8.82172 7.236C9.38972 6.636 10.1137 6.336 10.9937 6.336C11.8737 6.336 12.5977 6.636 13.1657 7.236C13.7337 7.836 14.0177 8.604 14.0177 9.54V11.916C14.0177 12.86 13.7337 13.632 13.1657 14.232C12.5977 14.824 11.8737 15.12 10.9937 15.12ZM10.9937 14.112C11.5857 14.112 12.0657 13.916 12.4337 13.524C12.8017 13.132 12.9857 12.596 12.9857 11.916V9.54C12.9857 8.86 12.8017 8.324 12.4337 7.932C12.0657 7.54 11.5857 7.344 10.9937 7.344C10.4097 7.344 9.93372 7.54 9.56572 7.932C9.19772 8.324 9.01372 8.86 9.01372 9.54V11.916C9.01372 12.596 9.19772 13.132 9.56572 13.524C9.93372 13.916 10.4097 14.112 10.9937 14.112Z" fill="white"/>
</svg>
