<svg width="68" height="49" viewBox="0 0 68 49" fill="none" xmlns="http://www.w3.org/2000/svg">
<path d="M25.3078 36.626C26.7873 36.626 27.9867 35.4267 27.9867 33.9472C27.9867 32.4677 26.7873 31.2683 25.3078 31.2683C23.8283 31.2683 22.6289 32.4677 22.6289 33.9472C22.6289 35.4267 23.8283 36.626 25.3078 36.626Z" fill="#1D2123"/>
<path d="M54.7807 20.1279C59.8664 19.2496 64.2578 16.2702 64.2578 10.2492C64.2578 2.88355 57.6461 0.0181356 51.9748 0.0181356L42.9641 0C41.2127 0 41.5236 0.0181356 41.5054 0.0259079C41.4873 0.0336803 41.6816 0.207263 41.7645 0.310895H50.5732C53.962 0.310895 57.7316 2.93796 58.6384 10.2492C59.5011 17.1977 54.0216 19.1874 50.7235 19.9387L48.7053 20.0346H13.9964C10.2973 20.0145 6.74071 21.4602 4.10475 24.0555C2.75598 25.3769 1.69549 26.9633 0.990087 28.7148C0.284684 30.4662 -0.0503428 32.3448 0.00611434 34.2322C0.0538693 37.9426 1.57364 41.4821 4.2311 44.072C5.54693 45.3544 7.10248 46.3651 8.8089 47.0463C10.5153 47.7276 12.3392 48.066 14.1765 48.0424C16.0137 48.0187 17.8283 47.6334 19.5166 46.9085C21.2049 46.1836 22.7339 45.1332 24.0163 43.8174C25.2987 42.5016 26.3094 40.946 26.9906 39.2396C27.6719 37.5332 28.0103 35.7093 27.9867 33.872H27.8131C27.8179 37.4294 26.4503 40.8516 23.9952 43.426C21.5402 46.0004 18.1867 47.5286 14.6331 47.6926C11.0795 47.8565 7.59957 46.6434 4.9179 44.306C2.23622 41.9685 0.559453 38.6868 0.236695 35.1441C-0.512044 27.0401 5.96494 20.2082 13.9964 20.2082H50.3556C51.6847 20.2885 52.9697 20.4206 52.9697 20.4206C55.703 20.7523 61.4442 23.2265 61.4442 30.5895C61.4442 37.5173 57.6668 40.2998 54.0993 40.6081C53.9283 40.6366 50.6147 40.6288 50.6147 40.6288C50.4981 40.6962 50.6561 40.8698 50.8219 40.9268H53.8376C60.5737 40.9268 67.1154 37.9448 67.1154 30.5791C67.1154 23.2135 60.4519 20.1279 54.7807 20.1279Z" fill="#1D2123"/>
<path d="M14.8333 31.6647C14.649 31.7137 14.4622 31.7526 14.2737 31.7813C12.0093 37.481 9.28383 39.9993 5.58936 40.634V40.9345H18.0407V40.6418C14.6856 40.634 13.8643 36.0897 14.8333 31.6647Z" fill="#1D2123"/>
<path d="M33.7642 40.634V40.9345H46.6249L46.3658 40.6366C42.7387 40.6366 41.3578 36.5509 39.8396 32.8098C38.267 29.0609 27.2095 0 27.2095 0H26.6913C26.6913 0 25.7353 2.45089 24.2664 6.2179L24.4114 6.55989C24.528 6.85265 34.8161 33.6829 35.4016 35.2607C36.9794 39.5251 36.57 40.634 33.7642 40.634Z" fill="#1D2123"/>
<path d="M41.718 40.634V40.9345H54.5787L54.3196 40.6366C50.6925 40.6366 49.3116 36.5509 47.7908 32.8098C46.2156 29.0609 35.1685 0 35.1685 0H34.6503L32.2253 6.192C32.2772 6.30858 42.7673 33.6777 43.3658 35.2555C44.9306 39.5251 44.5212 40.634 41.718 40.634Z" fill="#1D2123"/>
</svg>
